<svg width="32" height="32" viewBox="0 0 32 32" fill="none" xmlns="http://www.w3.org/2000/svg">
<path d="M23 12.9999H9C8.44751 12.9999 8 12.4778 8 11.8332V3.66654C8 3.02197 8.44751 2.49988 9 2.49988H23C23.5525 2.49988 24 3.02197 24 3.66654V11.8332C24 12.4778 23.5525 12.9999 23 12.9999Z" fill="#00C5FF"/>
<path d="M8.25807 0.257334H23.7419C25.0227 0.257334 26.0653 1.29988 26.0653 2.58065V13.2976C26.0653 14.0917 25.8775 14.8884 25.5221 15.5988L25.522 15.5991C25.2024 16.2396 25.033 16.9551 25.033 17.6701V29.4194C25.033 30.7001 23.9904 31.7427 22.7097 31.7427H9.29033C8.00957 31.7427 6.96702 30.7001 6.96702 29.4194V17.6701C6.96702 16.9556 6.79764 16.2396 6.47797 15.5995L6.47796 15.5995C6.12254 14.8879 5.93476 14.0916 5.93476 13.2976V2.58065C5.93476 1.29988 6.97731 0.257334 8.25807 0.257334ZM25.0586 15.3683L25.0586 15.3682C25.3783 14.7281 25.5477 14.0126 25.5477 13.2976V2.58065C25.5477 1.58494 24.7376 0.774924 23.7419 0.774924H8.25807C7.26237 0.774924 6.45235 1.58494 6.45235 2.58065V13.2976C6.45235 14.0126 6.62174 14.7281 6.94141 15.3682L6.94145 15.3683C7.29682 16.0793 7.48461 16.8761 7.48461 17.6701V29.4194C7.48461 30.4151 8.29463 31.2251 9.29033 31.2251H22.7097C23.7054 31.2251 24.5154 30.4151 24.5154 29.4194V17.6701C24.5154 16.8761 24.7032 16.0793 25.0586 15.3683Z" fill="#322153" stroke="#322153" stroke-width="0.514669"/>
<path d="M9.54922 28.9031V29.1605H9.80655H11.8721H12.1297L12.1294 28.9029L12.1284 27.8706L12.1281 27.6135H11.8711H9.80655H9.54922V27.8709V28.9031ZM9.80655 27.096H11.8711C12.2982 27.096 12.646 27.4437 12.646 27.8709V28.9031C12.646 29.3303 12.2982 29.6781 11.8711 29.6781H9.80655C9.37937 29.6781 9.03163 29.3303 9.03163 28.9031V27.8709C9.03163 27.4437 9.37937 27.096 9.80655 27.096Z" fill="#322153" stroke="#322153" stroke-width="0.514669"/>
<path d="M9.54922 24.7742V25.0316H9.80655H11.8721H12.1297L12.1294 24.774L12.1284 23.7417L12.1281 23.4846H11.8711H9.80655H9.54922V23.742V24.7742ZM9.80655 22.9671H11.8711C12.2982 22.9671 12.646 23.3148 12.646 23.742V24.7742C12.646 25.2014 12.2982 25.5492 11.8711 25.5492H9.80655C9.37937 25.5492 9.03163 25.2014 9.03163 24.7742V23.742C9.03163 23.3148 9.37937 22.9671 9.80655 22.9671Z" fill="#322153" stroke="#322153" stroke-width="0.514669"/>
<path d="M9.54922 20.6453V20.9027H9.80655H11.8721H12.1297L12.1294 20.6451L12.1284 19.6128L12.1281 19.3557H11.8711H9.80655H9.54922V19.6131V20.6453ZM9.80655 18.8381H11.8711C12.2982 18.8381 12.646 19.1859 12.646 19.6131V20.6453C12.646 21.0725 12.2982 21.4203 11.8711 21.4203H9.80655C9.37937 21.4203 9.03163 21.0725 9.03163 20.6453V19.6131C9.03163 19.1859 9.37937 18.8381 9.80655 18.8381Z" fill="#322153" stroke="#322153" stroke-width="0.514669"/>
<path d="M14.7107 28.9031V29.1605H14.968H17.0336H17.2912L17.2909 28.9029L17.2899 27.8706L17.2896 27.6135H17.0326H14.968H14.7107V27.8709V28.9031ZM14.968 27.096H17.0326C17.4597 27.096 17.8075 27.4437 17.8075 27.8709V28.9031C17.8075 29.3303 17.4597 29.6781 17.0326 29.6781H14.968C14.5409 29.6781 14.1931 29.3303 14.1931 28.9031V27.8709C14.1931 27.4437 14.5409 27.096 14.968 27.096Z" fill="#322153" stroke="#322153" stroke-width="0.514669"/>
<path d="M14.7107 24.7742V25.0316H14.968H17.0336H17.2912L17.2909 24.774L17.2899 23.7417L17.2896 23.4846H17.0326H14.968H14.7107V23.742V24.7742ZM14.968 22.9671H17.0326C17.4597 22.9671 17.8075 23.3148 17.8075 23.742V24.7742C17.8075 25.2014 17.4597 25.5492 17.0326 25.5492H14.968C14.5409 25.5492 14.1931 25.2014 14.1931 24.7742V23.742C14.1931 23.3148 14.5409 22.9671 14.968 22.9671Z" fill="#322153" stroke="#322153" stroke-width="0.514669"/>
<path d="M14.7107 20.6453V20.9027H14.968H17.0336H17.2912L17.2909 20.6451L17.2899 19.6128L17.2896 19.3557H17.0326H14.968H14.7107V19.6131V20.6453ZM14.968 18.8381H17.0326C17.4597 18.8381 17.8075 19.1859 17.8075 19.6131V20.6453C17.8075 21.0725 17.4597 21.4203 17.0326 21.4203H14.968C14.5409 21.4203 14.1931 21.0725 14.1931 20.6453V19.6131C14.1931 19.1859 14.5409 18.8381 14.968 18.8381Z" fill="#322153" stroke="#322153" stroke-width="0.514669"/>
<path d="M14.4519 14.709H17.5487C18.2601 14.709 18.8397 15.2886 18.8397 16C18.8397 16.7115 18.2601 17.2911 17.5487 17.2911H14.4519C13.7404 17.2911 13.1608 16.7115 13.1608 16C13.1608 15.2886 13.7404 14.709 14.4519 14.709ZM14.4519 16.7735H17.5487C17.9757 16.7735 18.3221 16.4263 18.3221 16C18.3221 15.5738 17.9757 15.2266 17.5487 15.2266H14.4519C14.0248 15.2266 13.6784 15.5738 13.6784 16C13.6784 16.4263 14.0248 16.7735 14.4519 16.7735Z" fill="#322153" stroke="#322153" stroke-width="0.514669"/>
<path d="M19.8714 28.9031V29.1605H20.1287H22.1942H22.4518L22.4516 28.9029L22.4505 27.8706L22.4503 27.6135H22.1932H20.1287H19.8714V27.8709V28.9031ZM20.1287 27.096H22.1932C22.6204 27.096 22.9681 27.4437 22.9681 27.8709V28.9031C22.9681 29.3303 22.6204 29.6781 22.1932 29.6781H20.1287C19.7015 29.6781 19.3538 29.3303 19.3538 28.9031V27.8709C19.3538 27.4437 19.7015 27.096 20.1287 27.096Z" fill="#322153" stroke="#322153" stroke-width="0.514669"/>
<path d="M19.8714 24.7742V25.0316H20.1287H22.1942H22.4518L22.4516 24.774L22.4505 23.7417L22.4503 23.4846H22.1932H20.1287H19.8714V23.742V24.7742ZM20.1287 22.9671H22.1932C22.6204 22.9671 22.9681 23.3148 22.9681 23.742V24.7742C22.9681 25.2014 22.6204 25.5492 22.1932 25.5492H20.1287C19.7015 25.5492 19.3538 25.2014 19.3538 24.7742V23.742C19.3538 23.3148 19.7015 22.9671 20.1287 22.9671Z" fill="#322153" stroke="#322153" stroke-width="0.514669"/>
<path d="M19.8714 20.6453V20.9027H20.1287H22.1942H22.4518L22.4516 20.6451L22.4505 19.6128L22.4503 19.3557H22.1932H20.1287H19.8714V19.6131V20.6453ZM20.1287 18.8381H22.1932C22.6204 18.8381 22.9681 19.1859 22.9681 19.6131V20.6453C22.9681 21.0725 22.6204 21.4203 22.1932 21.4203H20.1287C19.7015 21.4203 19.3538 21.0725 19.3538 20.6453V19.6131C19.3538 19.1859 19.7015 18.8381 20.1287 18.8381Z" fill="#322153" stroke="#322153" stroke-width="0.514669"/>
<path d="M21.1619 15.2266H20.9046V15.4839V16.5162V16.7735H21.1619H22.1942H22.4515V16.5162V15.4839V15.2266H22.1942H21.1619ZM22.9691 14.709V17.2911H20.387V14.709H22.9691Z" fill="#322153" stroke="#322153" stroke-width="0.514669"/>
<path d="M10.8388 16.7735H11.0961V16.5162V15.4839V15.2266H10.8388H9.80655H9.54922V15.4839V16.5162V16.7735H9.80655H10.8388ZM9.03163 14.709H11.6137V17.2911H9.03163V14.709Z" fill="#322153" stroke="#322153" stroke-width="0.514669"/>
</svg>
